<?xml version="1.0" encoding="UTF-8"?>
<svg width="170px" height="70px" viewBox="0 0 170 70" version="1.1" xmlns="http://www.w3.org/2000/svg" xmlns:xlink="http://www.w3.org/1999/xlink">
    <title>giftGRUEN_Logo</title>
    <g id="Wireframes-Design-02.12.24" stroke="none" stroke-width="1" fill="none" fill-rule="evenodd">
        <g id="Branchenseite_Verbaende" transform="translate(-116, -22)" fill="#FFFFFF" fill-rule="nonzero">
            <g id="giftGRUEN_Logo" transform="translate(116, 22)">
                <path d="M160.932897,23.3496715 L160.932897,51.2439789 L141.30428,23.3496715 L134.448168,23.3496715 L134.448168,69.0794591 L143.461798,69.0794591 L143.461798,41.1180289 L163.061648,69.0794591 L169.91776,69.0794591 L169.91776,23.3496715 L160.932897,23.3496715 Z M61.6870799,31.7783743 L70.9692008,31.7783743 C72.6820325,31.8457147 74.2979532,32.5907443 75.4614517,33.8495526 C76.6249503,35.108361 77.2407109,36.7778242 77.173263,38.4906517 C77.173263,42.3262389 74.3636954,45.2796409 70.9692008,45.2796409 L61.6870799,45.2796409 L61.6870799,31.7783743 Z M77.75819,69.0794591 L87.5005813,69.0794591 L77.3746313,51.819317 C82.6455401,49.4580768 86.0787683,44.2652724 86.1868927,38.4906517 C86.1818151,34.4615113 84.5750581,30.5996943 81.7206325,27.7560606 C78.866207,24.9124268 74.9983315,23.3203094 70.9692008,23.330445 L52.6734502,23.330445 L52.6734502,69.0794591 L61.6870799,69.0794591 L61.6870799,53.2097173 L68.5527809,53.2097173 L77.75819,69.0794591 Z M47.0063702,44.5221125 L24.0791481,44.5221125 L24.0791481,52.4905448 L37.9256177,52.4905448 C36.353027,57.7165322 31.7886783,61.1781496 24.5969524,61.1781496 C15.0079846,61.1781496 8.98611278,54.7727191 8.98611278,46.2768936 C8.98611278,37.5892888 15.2572977,31.1934472 23.9449026,31.1934472 C29.496915,31.1934472 34.1379754,33.8687692 36.2283704,37.5317549 L43.8995446,33.0824739 C39.5481344,26.3242272 32.0103861,22.2978073 23.9736695,22.4387196 C17.6086402,22.3375021 11.4726927,24.812107 6.95874705,29.3007746 C2.44480135,33.7894422 -0.0642219495,39.9113963 0.00124993305,46.2768936 C0.00124993305,59.3466567 10.1943227,70 24.5010627,70 C37.6379486,70 46.9776033,61.2452724 46.9776033,48.0412637 L47.0063702,44.5221125 Z" id="Shape"></path>
                <path d="M109.046992,69.990411 C119.105819,69.990411 126.556447,63.9877172 126.556447,54.1206693 L126.556447,23.3496715 L117.542818,23.3496715 L117.542818,53.4014967 C117.542818,57.8411888 115.19352,61.1781496 109.046992,61.1781496 C102.900464,61.1781496 100.5224,57.8411888 100.5224,53.4014967 L100.5224,23.3496715 L91.6046596,23.3496715 L91.6046596,54.1206693 C91.6046596,63.9877172 99.0552876,69.990411 109.046992,69.990411" id="Path"></path>
                <rect id="Rectangle" x="104.847024" y="23.3496715" width="8.42870272" height="13.8752364"></rect>
                <path d="M169.91776,0.269025984 L157.595936,0.269025984 L157.595936,1.5155918 L163.080826,1.5155918 L163.080826,17.7401254 L164.43287,17.7401254 L164.43287,1.5155918 L169.91776,1.5155918 L169.91776,0.269025984 Z M155.735676,1.5155918 L155.735676,0.269025984 L146.050819,0.269025984 L146.050819,17.7401254 L147.374096,17.7401254 L147.374096,9.75251516 L155.428829,9.75251516 L155.428829,8.50594934 L147.374096,8.50594934 L147.374096,1.5155918 L155.735676,1.5155918 Z M140.517984,17.7401254 L141.841262,17.7401254 L141.841262,0.269025984 L140.517984,0.269025984 L140.517984,17.7401254 Z M137.372803,9.59909168 L128.608486,9.59909168 L128.608486,10.8552465 L136.001581,10.8552465 C135.723501,14.1154955 133.12489,16.7428727 128.915333,16.7428727 C124.64159,16.7693519 121.155571,13.326264 121.129091,9.05252051 C121.102612,4.77877707 124.5457,1.29275784 128.819444,1.26627864 C131.442951,1.2173705 133.879866,2.61831998 135.157751,4.91008641 L136.327605,4.21009176 C134.753217,1.56985337 131.893267,-0.0336181372 128.819444,0.000534884871 C125.60261,0.0176639261 122.639271,1.74965229 121.045688,4.54407673 C119.452105,7.33850116 119.470382,10.7708221 121.093633,13.5481175 C122.716884,16.3254129 125.698499,18.0257455 128.915333,18.0087447 C134.131732,18.0087447 137.353625,14.4894653 137.353625,10.2799084 L137.372803,9.59909168 Z" id="Shape"></path>
            </g>
        </g>
    </g>
</svg>